<?xml version="1.0" encoding="UTF-8"?>
<svg width="24px" height="24px" viewBox="0 0 24 24" version="1.1" xmlns="http://www.w3.org/2000/svg" xmlns:xlink="http://www.w3.org/1999/xlink">
    <title>icon/carstop</title>
    <g id="小版" stroke="none" stroke-width="1" fill="none" fill-rule="evenodd">
        <g id="工作台1" transform="translate(-328.000000, -1062.000000)">
            <g id="icon/carstop" transform="translate(328.000000, 1062.000000)">
                <rect id="矩形" fill="#F0F0F0" x="0" y="0" width="24" height="24" rx="12"></rect>
                <g id="车辆购置税" transform="translate(4.000000, 6.000000)" fill-rule="nonzero">
                    <path d="M14.4140332,10.3815166 L1.7577832,10.3815166 C1.11161133,10.3815166 0.5859375,9.82877014 0.5859375,9.14931991 L0.5859375,6.25349289 C0.5859375,6.18870853 0.588662109,6.12447867 0.593964844,6.06114218 L0.595605469,6.04136493 L0.595839844,6.04007109 C0.643974609,5.52275118 0.869882812,5.04067299 1.231875,4.68261848 L1.30921875,4.60612796 L1.35609375,4.50600948 L2.45642578,2.15633649 L7.85150391,2.15633649 L7.85150391,4.09721801 L13.2421875,4.09721801 C13.8883301,4.09721801 14.4140332,4.64996445 14.4140332,5.32941469 L14.4140332,10.3815166 Z" id="路径" fill="#F0F0F0"></path>
                    <path d="M13.8280957,9.76540284 L13.8280957,5.32941469 C13.8280957,4.98972038 13.5652441,4.71333175 13.2421582,4.71333175 L7.265625,4.71333175 L7.265625,2.77245024 L2.82099609,2.77245024 L1.88173828,4.77814692 L1.78795898,4.97841469 L1.63333008,5.13136493 C1.37463867,5.38723697 1.21327148,5.73127488 1.17893555,6.10011137 L1.17873047,6.10165166 L1.17761719,6.11517536 C1.1737687,6.16117013 1.1718457,6.20732044 1.1718457,6.25349289 L1.1718457,9.14931991 C1.1718457,9.48901422 1.43472656,9.76540284 1.7577832,9.76540284 L13.8280957,9.76540284 M14.9999707,10.9976303 L1.7577832,10.9976303 C0.78703125,10.9976303 0,10.1700972 0,9.14931991 L0,6.25349289 C0,6.17050237 0.00348632812,6.08825118 0.0102539062,6.007109 L0,6.007109 L0.0126855469,5.98006161 C0.0765527344,5.2937109 0.378427734,4.68089336 0.830449219,4.23384123 L2.09179687,1.54022275 L8.43741211,1.54022275 L8.43741211,3.48110427 L13.2421875,3.48110427 C14.2130566,3.48110427 14.9999707,4.30854502 14.9999707,5.32941469 L14.9999707,10.9976303 Z" id="形状" fill="#666666"></path>
                    <path d="M14.4140625,5.91469194 L6.82617187,5.91469194 C6.18,5.91469194 5.65429688,5.36191469 5.65429688,4.68246445 L5.65429688,1.84834123 C5.65429688,1.168891 6.18,0.616113744 6.82617187,0.616113744 L13.2421875,0.616113744 C13.8883594,0.616113744 14.4140625,1.168891 14.4140625,1.84834123 L14.4140625,5.91469194 Z" id="路径" fill="#F0F0F0"></path>
                    <path d="M6.82617187,1.23222749 C6.50308594,1.23222749 6.24023437,1.50861611 6.24023437,1.84834123 L6.24023437,4.68246445 C6.24023437,5.02218957 6.50308594,5.2985782 6.82617187,5.2985782 L13.828125,5.2985782 L13.828125,1.84834123 C13.828125,1.50861611 13.5652734,1.23222749 13.2421875,1.23222749 L6.82617187,1.23222749 M6.82617187,0 L13.2421875,0 C14.212998,0 15,0.827533175 15,1.84834123 L15,6.53080569 L6.82617187,6.53080569 C5.85536133,6.53080569 5.06835938,5.70327251 5.06835938,4.68246445 L5.06835938,1.84834123 C5.06835938,0.827533175 5.85536133,0 6.82617187,0 Z" id="形状" fill="#666666"></path>
                    <path d="M4.17480469,12.3838863 C3.34286133,12.3838863 2.66601562,11.6721825 2.66601562,10.7973934 C2.66601562,9.92260427 3.34286133,9.21090047 4.17480469,9.21090047 C5.00674805,9.21090047 5.68359375,9.92260427 5.68359375,10.7973934 C5.68359375,11.6721825 5.00674805,12.3838863 4.17480469,12.3838863 Z" id="路径" fill="#F0F0F0"></path>
                    <path d="M4.17480469,9.82701422 C3.66591797,9.82701422 3.25195313,10.2622986 3.25195313,10.7973934 C3.25195313,11.3324882 3.66591797,11.7677725 4.17480469,11.7677725 C4.68369141,11.7677725 5.09765625,11.3324882 5.09765625,10.7973934 C5.09765625,10.2622986 4.68369141,9.82701422 4.17480469,9.82701422 M4.17480469,8.59478673 C5.33167969,8.59478673 6.26953125,9.58093839 6.26953125,10.7973934 C6.26953125,12.0138483 5.33167969,13 4.17480469,13 C3.01792969,13 2.08007812,12.0138483 2.08007812,10.7973934 C2.08007812,9.58093839 3.01792969,8.59478673 4.17480469,8.59478673 Z" id="形状" fill="#666666"></path>
                    <path d="M11.0888672,12.3838863 C10.2569238,12.3838863 9.58007812,11.6721825 9.58007812,10.7973934 C9.58007812,9.92260427 10.2569238,9.21090047 11.0888672,9.21090047 C11.9208105,9.21090047 12.5976562,9.92260427 12.5976562,10.7973934 C12.5976562,11.6721825 11.9208105,12.3838863 11.0888672,12.3838863 Z" id="路径" fill="#F0F0F0"></path>
                    <path d="M11.0888672,9.82701422 C10.5799805,9.82701422 10.1660156,10.2622986 10.1660156,10.7973934 C10.1660156,11.3324882 10.5799805,11.7677725 11.0888672,11.7677725 C11.5977539,11.7677725 12.0117187,11.3324882 12.0117187,10.7973934 C12.0117187,10.2622986 11.5977539,9.82701422 11.0888672,9.82701422 M11.0888672,8.59478673 C12.2457422,8.59478673 13.1835937,9.58093839 13.1835937,10.7973934 C13.1835937,12.0138483 12.2457422,13 11.0888672,13 C9.93199219,13 8.99414062,12.0138483 8.99414062,10.7973934 C8.99414062,9.58093839 9.93199219,8.59478673 11.0888672,8.59478673 Z" id="形状" fill="#666666"></path>
                </g>
            </g>
        </g>
    </g>
</svg>