<?xml version="1.0" encoding="UTF-8"?>
<svg width="24px" height="24px" viewBox="0 0 24 24" version="1.1" xmlns="http://www.w3.org/2000/svg" xmlns:xlink="http://www.w3.org/1999/xlink">
    <title>icon/fangke</title>
    <g id="小版" stroke="none" stroke-width="1" fill="none" fill-rule="evenodd">
        <g id="工作台1" transform="translate(-328.000000, -585.000000)">
            <g id="icon/fangke" transform="translate(328.000000, 585.000000)">
                <rect id="矩形备份-2" fill="#E6E6E6" x="0" y="0" width="24" height="24" rx="12"></rect>
                <g id="访客通行" transform="translate(6.714286, 5.382022)">
                    <path d="M3,5.33707865 C3,6.62781155 4.02334915,7.67415731 5.28571429,7.67415731 C6.54807944,7.67415731 7.57142858,6.62781155 7.57142858,5.33707865 C7.57142858,4.04634575 6.54807944,3 5.28571429,3 C4.02334915,3 3,4.04634575 3,5.33707865 Z M4.0525405,5.33707865 C4.0525405,4.53037059 4.49673607,4.09279389 5.28571429,4.09279389 C6.07469251,4.09279389 6.55173047,4.53037059 6.55173047,5.33707865 C6.55173047,6.14378672 6.07469251,6.54861878 5.28571429,6.54861878 C4.49673607,6.54861878 4.0525405,6.14378672 4.0525405,5.33707865 Z M6.85714286,8.51338754 L3.71428572,8.51338754 C3.47759226,8.51338754 3.31706371,8.8011982 3.31706371,9.04321062 C3.31706371,9.28522304 3.47759226,9.5730337 3.71428572,9.5730337 L6.85714286,9.5730337 C7.09383632,9.5730337 7.31706371,9.28522304 7.31706371,9.04321062 C7.31706371,8.8011982 7.09383632,8.51338754 6.85714286,8.51338754 Z" id="形状" fill="#666666" fill-rule="nonzero"></path>
                    <rect id="矩形" stroke="#666666" stroke-width="1.3" x="0.65" y="0.65" width="9.7" height="11.7" rx="2"></rect>
                </g>
            </g>
        </g>
    </g>
</svg>