<?xml version="1.0" encoding="UTF-8"?>
<svg width="40px" height="40px" viewBox="0 0 40 40" version="1.1" xmlns="http://www.w3.org/2000/svg" xmlns:xlink="http://www.w3.org/1999/xlink">
    <title>编组 3备份 3</title>
    <g id="页面-1" stroke="none" stroke-width="1" fill="none" fill-rule="evenodd">
        <g id="字体排版设计" transform="translate(-1219.000000, -813.000000)" fill="#272381">
            <g id="编组-3备份-3" transform="translate(1219.000000, 813.000000)">
                <rect id="矩形备份" opacity="0" x="0" y="0" width="40" height="40"></rect>
                <g id="未标题-2" transform="translate(4.000000, 13.000000)" fill-rule="nonzero">
                    <path d="M0.490541539,0.488677003 C0.490541539,0.488677003 -1.3876416,8.19283976 2.2061896,11.786671 C5.8000208,15.3805022 13.5041836,13.5059309 13.5041836,13.5059309 C13.5041836,13.5059309 15.3823667,5.80176815 11.7885355,2.20793695 C8.1947043,-1.38589425 0.490541539,0.488677003 0.490541539,0.488677003 Z" id="路径"></path>
                    <path d="M31.5094585,0.488677003 C31.5094585,0.488677003 23.8052957,-1.38589425 20.2114645,2.20793695 C16.6176333,5.80176815 18.4958164,13.5059309 18.4958164,13.5059309 C18.4958164,13.5059309 26.1999792,15.3805022 29.7938104,11.786671 C33.3876416,8.19283976 31.5094585,0.488677003 31.5094585,0.488677003 Z" id="路径"></path>
                </g>
            </g>
        </g>
    </g>
</svg>